PathFileType	4	(x/y/z)	S02_P20_T16
DataRate	CameraRate	NumFrames	NumMarkers	Units	OrigDataRate	OrigDataStartFrame	OrigNumFrames
240	240	4	51	mm	240	257	342
Frame#	Time	Sternum			R.Acromium			L.Acromium			Top.Head			R.ASIS			L.ASIS			R.PSIS			L.PSIS			R.Great.Tro			L.Great.Tro			R.Iliac.Crest			L.Iliac.Crest			V.Sacral			R.Thigh.Upper.Post			R.Thigh.Lower.Ant			R.Thigh.Lower.Post			R.Thigh.Upper.Ant			R.Knee.Lat			R.Knee.Med			R.Shank.Upper.Post			R.Shank.Lower.Ant			R.Shank.Lower.Post			R.Shank.Upper.Ant			R.Ankle.Lat			R.Ankle.Med			R.Heel.Upper			R.Heel.Med			R.Heel.Lat			R.Toe.Lat			R.Toe.Med			R.Toe.Tip			L.Thigh.Upper.Post			L.Thigh.Lower.Ant			L.Thigh.Lower.Post			L.Thigh.Upper.Ant			L.Knee.Lat			L.Knee.Med			L.Shank.Upper.Post			L.Shank.Lower.Ant			L.Shank.Lower.Post			L.Shank.Upper.Ant			L.Ankle.Lat			L.Ankle.Med			L.Heel.Upper			L.Heel.Med			L.Heel.Lat			L.Toe.Lat			L.Toe.Med			L.Toe.Tip			Cervical.Spine			Back			
		X1	Y1	Z1	X2	Y2	Z2	X3	Y3	Z3	X4	Y4	Z4	X5	Y5	Z5	X6	Y6	Z6	X7	Y7	Z7	X8	Y8	Z8	X9	Y9	Z9	X10	Y10	Z10	X11	Y11	Z11	X12	Y12	Z12	X13	Y13	Z13	X14	Y14	Z14	X15	Y15	Z15	X16	Y16	Z16	X17	Y17	Z17	X18	Y18	Z18	X19	Y19	Z19	X20	Y20	Z20	X21	Y21	Z21	X22	Y22	Z22	X23	Y23	Z23	X24	Y24	Z24	X25	Y25	Z25	X26	Y26	Z26	X27	Y27	Z27	X28	Y28	Z28	X29	Y29	Z29	X30	Y30	Z30	X31	Y31	Z31	X32	Y32	Z32	X33	Y33	Z33	X34	Y34	Z34	X35	Y35	Z35	X36	Y36	Z36	X37	Y37	Z37	X38	Y38	Z38	X39	Y39	Z39	X40	Y40	Z40	X41	Y41	Z41	X42	Y42	Z42	X43	Y43	Z43	X44	Y44	Z44	X45	Y45	Z45	X46	Y46	Z46	X47	Y47	Z47	X48	Y48	Z48	X49	Y49	Z49	X50	Y50	Z50	X51	Y51	Z51	

257	1.0667	203.03	1093.6	306.07	94.648	1332	442.74	96.559	1333	148.26	164.53	1615	290.57	152.22	910.64	417.42	174.95	915.04	206.55	-53.656	956.12	348.65	-55.627	966.16	275.4	69.602	793.87	500.53	55.271	836.33	110.62	51.014	959.06	468.4	55.478	969.72	132.45	-79.839	913.65	301.24	99.655	597.29	502.78	168.5	522.56	488.98	96.467	507.21	490.91	167.4	612.25	496.78	117.16	433.65	488.87	136.08	409.1	345.58	-72.526	357.46	464.57	-92.889	249.33	449.62	-126.52	308.01	452.88	-39.513	292.31	467.67	-191.45	231.88	441.29	-162.56	237.5	359.79	-218.88	285.6	386.83	-237.08	266.66	351.24	-252.77	267.71	414.49	-205.64	110.8	446.06	-175.99	93.752	341.14	-142.19	53.33	399.12	76.431	594.82	139.01	168.29	534.9	150.23	95.085	509.28	165.74	141.21	622.95	124.82	168.65	452.98	165.75	163.41	457.98	303.2	85.756	282.39	173.88	153.11	195.51	195.51	82.04	210.93	193.34	150.05	269.67	175.75	103.97	98.058	212.1	115.63	95.629	293.99	45.124	65.586	247.26	53.45	40.194	281.39	51.097	37.575	219.46	217.5	34.932	190.09	237.92	46.172	300.31	298.01	62.781	253.03	19.984	1394.2	295.56	-56.955	1141.8	309.4
258	1.0708	208.17	1095	306.25	99.458	1333.3	442.7	101.93	1334.1	148.13	169.96	1616.2	290.49	157.35	912.09	417.24	179.93	915.84	206.34	-48.473	957.52	348.21	-50.446	967.5	274.97	74.975	795.44	500.33	59.574	837.17	110.6	55.97	960.44	468.09	60.725	970.71	132.11	-74.791	915.06	300.85	108.34	599.27	503.07	178.12	525.38	489.32	106.29	509.14	491.31	175.97	615.07	497.06	128.04	435.89	489.28	146.67	411.58	345.79	-61.125	358.44	464.4	-80.628	250.18	449.41	-114.72	308.59	452.62	-27.639	293.56	467.55	-179.03	232.16	440.82	-150.17	237.95	359.36	-207.17	285.26	386.2	-225.04	265.96	350.65	-240.81	266.98	413.85	-191.53	111.04	445.98	-161.52	94.077	341.16	-127.25	54.284	399.35	78.837	595.7	139.03	170.12	534.9	150.33	96.666	509.98	165.71	143.88	623.23	124.92	169.58	452.99	165.81	164.2	457.97	303.35	85.99	282.6	174.08	153.2	195.56	195.47	82.169	211.16	193.51	150.27	269.74	175.77	103.99	98.193	212.1	115.68	95.71	294.02	45.138	65.669	247.3	53.478	40.267	281.41	51.117	37.681	219.48	217.51	34.952	190.09	237.96	46.159	300.32	298.04	62.742	253.04	25.197	1395.4	295.25	-51.772	1143	308.73
259	1.075	213.29	1096.3	306.42	104.28	1334.7	442.66	107.28	1335.1	148.01	175.37	1617.4	290.44	162.47	913.56	417.04	184.92	916.59	206.13	-43.278	958.94	347.77	-45.26	968.85	274.54	80.361	797.03	500.14	63.879	837.96	110.6	60.951	961.87	467.77	65.957	971.65	131.77	-69.747	916.5	300.48	117.02	601.3	503.34	187.72	528.26	489.6	116.09	511.14	491.68	184.52	617.94	497.3	138.86	438.17	489.62	157.21	414.13	345.96	-49.75	359.26	464.18	-68.259	250.86	449.17	-102.88	308.95	452.33	-15.715	294.7	467.38	-166.48	232.15	440.33	-137.7	238.14	358.9	-195.44	284.56	385.53	-212.94	264.87	350.04	-228.77	265.85	413.21	-177.07	111	445.9	-146.72	94.167	341.19	-111.9	55.126	399.58	81.247	596.58	139.1	171.96	534.91	150.47	98.245	510.69	165.73	146.55	623.5	125.06	170.48	453	165.91	165.04	457.97	303.53	86.228	282.83	174.29	153.3	195.62	195.45	82.303	211.4	193.68	150.49	269.83	175.82	104.01	98.33	212.11	115.73	95.79	294.06	45.154	65.76	247.34	53.505	40.344	281.44	51.138	37.797	219.51	217.52	34.972	190.1	237.99	46.141	300.33	298.08	62.695	253.05	30.402	1396.6	294.96	-46.604	1144.2	308.06
260	1.0792	218.39	1097.6	306.59	109.1	1336	442.63	112.62	1336.2	147.91	180.76	1618.5	290.41	167.58	915.04	416.83	189.91	917.32	205.9	-38.07	960.38	347.34	-40.07	970.19	274.11	85.767	798.63	499.97	68.186	838.72	110.61	65.96	963.34	467.44	71.165	972.53	131.43	-64.707	917.95	300.13	125.67	603.37	503.59	197.27	531.2	489.81	125.85	513.2	492.03	193.04	620.84	497.49	149.6	440.5	489.9	167.7	416.74	346.11	-38.398	359.91	463.92	-55.789	251.37	448.9	-91.004	309.08	452.01	-3.7465	295.73	467.18	-153.81	231.87	439.81	-125.13	238.07	358.43	-183.66	283.52	384.84	-200.77	263.39	349.42	-216.65	264.32	412.56	-162.3	110.7	445.84	-131.63	94.026	341.23	-96.164	55.846	399.79	83.661	597.45	139.2	173.78	534.91	150.64	99.825	511.4	165.78	149.22	623.76	125.23	171.37	453.04	166.03	165.93	457.99	303.75	86.474	283.06	174.52	153.4	195.69	195.45	82.447	211.65	193.87	150.72	269.93	175.89	104.04	98.467	212.14	115.78	95.87	294.11	45.172	65.862	247.39	53.529	40.426	281.47	51.16	37.919	219.55	217.53	34.993	190.11	238.03	46.119	300.35	298.12	62.641	253.06	35.6	1397.8	294.69	-41.45	1145.4	307.38
